<mxfile host="app.diagrams.net" modified="2023-05-14T18:52:22.030Z" agent="Mozilla/5.0 (Windows NT 10.0; Win64; x64) AppleWebKit/537.36 (KHTML, like Gecko) Chrome/112.0.0.0 Safari/537.36" etag="_huUvvlpVlRfV_wP_rtw" version="21.1.2" type="device">
  <diagram name="Страница 1" id="VwyjKjIDrcoXgrn-DnAc">
    <mxGraphModel dx="1886" dy="631" grid="1" gridSize="10" guides="1" tooltips="1" connect="1" arrows="1" fold="1" page="1" pageScale="1" pageWidth="827" pageHeight="1169" math="0" shadow="0">
      <root>
        <mxCell id="0" />
        <mxCell id="1" parent="0" />
        <mxCell id="p6ASIf7CxFFDQzg2Je8K-43" value="" style="rounded=0;whiteSpace=wrap;html=1;fillColor=none;dashed=1;dashPattern=12 12;" vertex="1" parent="1">
          <mxGeometry x="170" y="1150" width="410" height="200" as="geometry" />
        </mxCell>
        <mxCell id="p6ASIf7CxFFDQzg2Je8K-42" value="" style="rounded=0;whiteSpace=wrap;html=1;fillColor=none;dashed=1;dashPattern=12 12;" vertex="1" parent="1">
          <mxGeometry x="170" y="880" width="410" height="200" as="geometry" />
        </mxCell>
        <mxCell id="p6ASIf7CxFFDQzg2Je8K-39" value="" style="rounded=0;whiteSpace=wrap;html=1;fillColor=none;dashed=1;dashPattern=12 12;" vertex="1" parent="1">
          <mxGeometry x="170" y="40" width="410" height="810" as="geometry" />
        </mxCell>
        <mxCell id="p6ASIf7CxFFDQzg2Je8K-49" style="edgeStyle=orthogonalEdgeStyle;rounded=0;orthogonalLoop=1;jettySize=auto;html=1;exitX=1;exitY=0.5;exitDx=0;exitDy=0;" edge="1" parent="1" source="p6ASIf7CxFFDQzg2Je8K-1" target="p6ASIf7CxFFDQzg2Je8K-2">
          <mxGeometry relative="1" as="geometry" />
        </mxCell>
        <mxCell id="p6ASIf7CxFFDQzg2Je8K-1" value="Auth Endpoints" style="rounded=1;whiteSpace=wrap;html=1;" vertex="1" parent="1">
          <mxGeometry x="210" y="120" width="120" height="60" as="geometry" />
        </mxCell>
        <mxCell id="p6ASIf7CxFFDQzg2Je8K-50" style="edgeStyle=orthogonalEdgeStyle;rounded=0;orthogonalLoop=1;jettySize=auto;html=1;exitX=1;exitY=0.5;exitDx=0;exitDy=0;entryX=0;entryY=0.5;entryDx=0;entryDy=0;" edge="1" parent="1" source="p6ASIf7CxFFDQzg2Je8K-2" target="p6ASIf7CxFFDQzg2Je8K-6">
          <mxGeometry relative="1" as="geometry" />
        </mxCell>
        <mxCell id="p6ASIf7CxFFDQzg2Je8K-80" style="edgeStyle=orthogonalEdgeStyle;rounded=0;orthogonalLoop=1;jettySize=auto;html=1;exitX=1;exitY=0.5;exitDx=0;exitDy=0;entryX=1;entryY=0.5;entryDx=0;entryDy=0;fillColor=#f8cecc;strokeColor=#b85450;" edge="1" parent="1" source="p6ASIf7CxFFDQzg2Je8K-2" target="p6ASIf7CxFFDQzg2Je8K-38">
          <mxGeometry relative="1" as="geometry" />
        </mxCell>
        <mxCell id="p6ASIf7CxFFDQzg2Je8K-81" value="Messaging" style="edgeLabel;html=1;align=center;verticalAlign=middle;resizable=0;points=[];fontColor=#FF3333;" vertex="1" connectable="0" parent="p6ASIf7CxFFDQzg2Je8K-80">
          <mxGeometry x="-0.6159" y="-4" relative="1" as="geometry">
            <mxPoint as="offset" />
          </mxGeometry>
        </mxCell>
        <mxCell id="p6ASIf7CxFFDQzg2Je8K-2" value="Auth Service&lt;br&gt;" style="rounded=1;whiteSpace=wrap;html=1;" vertex="1" parent="1">
          <mxGeometry x="400" y="120" width="120" height="60" as="geometry" />
        </mxCell>
        <mxCell id="p6ASIf7CxFFDQzg2Je8K-3" value="RDBMS" style="shape=datastore;whiteSpace=wrap;html=1;" vertex="1" parent="1">
          <mxGeometry x="660" y="30" width="60" height="60" as="geometry" />
        </mxCell>
        <mxCell id="p6ASIf7CxFFDQzg2Je8K-51" style="edgeStyle=orthogonalEdgeStyle;rounded=0;orthogonalLoop=1;jettySize=auto;html=1;exitX=1;exitY=0.5;exitDx=0;exitDy=0;" edge="1" parent="1" source="p6ASIf7CxFFDQzg2Je8K-4" target="p6ASIf7CxFFDQzg2Je8K-5">
          <mxGeometry relative="1" as="geometry" />
        </mxCell>
        <mxCell id="p6ASIf7CxFFDQzg2Je8K-4" value="Tasks Endpoints&lt;font style=&quot;&quot;&gt;&lt;br&gt;&lt;font style=&quot;font-size: 9px;&quot;&gt;создать заявку, просмотреть заявки&lt;/font&gt;&lt;/font&gt;" style="rounded=1;whiteSpace=wrap;html=1;" vertex="1" parent="1">
          <mxGeometry x="210" y="210" width="120" height="60" as="geometry" />
        </mxCell>
        <mxCell id="p6ASIf7CxFFDQzg2Je8K-52" style="edgeStyle=orthogonalEdgeStyle;rounded=0;orthogonalLoop=1;jettySize=auto;html=1;exitX=1;exitY=0.5;exitDx=0;exitDy=0;entryX=0;entryY=0.5;entryDx=0;entryDy=0;" edge="1" parent="1" source="p6ASIf7CxFFDQzg2Je8K-5" target="p6ASIf7CxFFDQzg2Je8K-7">
          <mxGeometry relative="1" as="geometry" />
        </mxCell>
        <mxCell id="p6ASIf7CxFFDQzg2Je8K-53" style="edgeStyle=orthogonalEdgeStyle;rounded=0;orthogonalLoop=1;jettySize=auto;html=1;exitX=1;exitY=0.5;exitDx=0;exitDy=0;entryX=0;entryY=0.5;entryDx=0;entryDy=0;" edge="1" parent="1" source="p6ASIf7CxFFDQzg2Je8K-5" target="p6ASIf7CxFFDQzg2Je8K-8">
          <mxGeometry relative="1" as="geometry" />
        </mxCell>
        <mxCell id="p6ASIf7CxFFDQzg2Je8K-5" value="Task Service" style="rounded=1;whiteSpace=wrap;html=1;" vertex="1" parent="1">
          <mxGeometry x="400" y="210" width="120" height="60" as="geometry" />
        </mxCell>
        <mxCell id="p6ASIf7CxFFDQzg2Je8K-6" value="Users / Roles" style="rounded=0;whiteSpace=wrap;html=1;" vertex="1" parent="1">
          <mxGeometry x="630" y="120" width="120" height="60" as="geometry" />
        </mxCell>
        <mxCell id="p6ASIf7CxFFDQzg2Je8K-7" value="Clients" style="rounded=0;whiteSpace=wrap;html=1;" vertex="1" parent="1">
          <mxGeometry x="630" y="190" width="120" height="60" as="geometry" />
        </mxCell>
        <mxCell id="p6ASIf7CxFFDQzg2Je8K-8" value="Tasks" style="rounded=0;whiteSpace=wrap;html=1;" vertex="1" parent="1">
          <mxGeometry x="630" y="260" width="120" height="60" as="geometry" />
        </mxCell>
        <mxCell id="p6ASIf7CxFFDQzg2Je8K-9" value="Incoming Invoices" style="rounded=0;whiteSpace=wrap;html=1;" vertex="1" parent="1">
          <mxGeometry x="630" y="330" width="120" height="60" as="geometry" />
        </mxCell>
        <mxCell id="p6ASIf7CxFFDQzg2Je8K-10" value="Products" style="rounded=0;whiteSpace=wrap;html=1;" vertex="1" parent="1">
          <mxGeometry x="630" y="400" width="120" height="60" as="geometry" />
        </mxCell>
        <mxCell id="p6ASIf7CxFFDQzg2Je8K-11" value="Workers&lt;br&gt;" style="rounded=0;whiteSpace=wrap;html=1;" vertex="1" parent="1">
          <mxGeometry x="630" y="470" width="120" height="60" as="geometry" />
        </mxCell>
        <mxCell id="p6ASIf7CxFFDQzg2Je8K-12" value="S3" style="shape=datastore;whiteSpace=wrap;html=1;" vertex="1" parent="1">
          <mxGeometry x="830" y="30" width="60" height="60" as="geometry" />
        </mxCell>
        <mxCell id="p6ASIf7CxFFDQzg2Je8K-60" style="edgeStyle=orthogonalEdgeStyle;rounded=0;orthogonalLoop=1;jettySize=auto;html=1;exitX=1;exitY=0.5;exitDx=0;exitDy=0;entryX=0;entryY=0.5;entryDx=0;entryDy=0;" edge="1" parent="1" source="p6ASIf7CxFFDQzg2Je8K-14" target="p6ASIf7CxFFDQzg2Je8K-15">
          <mxGeometry relative="1" as="geometry" />
        </mxCell>
        <mxCell id="p6ASIf7CxFFDQzg2Je8K-14" value="Products Endpoints&lt;br&gt;&lt;font style=&quot;font-size: 9px;&quot;&gt;создать услуги, редактировать услуги&lt;/font&gt;" style="rounded=1;whiteSpace=wrap;html=1;" vertex="1" parent="1">
          <mxGeometry x="210" y="290" width="120" height="60" as="geometry" />
        </mxCell>
        <mxCell id="p6ASIf7CxFFDQzg2Je8K-15" value="Products Service" style="rounded=1;whiteSpace=wrap;html=1;" vertex="1" parent="1">
          <mxGeometry x="400" y="290" width="120" height="60" as="geometry" />
        </mxCell>
        <mxCell id="p6ASIf7CxFFDQzg2Je8K-16" value="Matching Service" style="rounded=1;whiteSpace=wrap;html=1;" vertex="1" parent="1">
          <mxGeometry x="400" y="370" width="120" height="60" as="geometry" />
        </mxCell>
        <mxCell id="p6ASIf7CxFFDQzg2Je8K-17" value="Scoring Service" style="rounded=1;whiteSpace=wrap;html=1;" vertex="1" parent="1">
          <mxGeometry x="400" y="450" width="120" height="60" as="geometry" />
        </mxCell>
        <mxCell id="p6ASIf7CxFFDQzg2Je8K-18" value="Depo Service" style="rounded=1;whiteSpace=wrap;html=1;" vertex="1" parent="1">
          <mxGeometry x="400" y="525" width="120" height="60" as="geometry" />
        </mxCell>
        <mxCell id="p6ASIf7CxFFDQzg2Je8K-19" value="Cookie Service" style="rounded=1;whiteSpace=wrap;html=1;" vertex="1" parent="1">
          <mxGeometry x="400" y="600" width="120" height="60" as="geometry" />
        </mxCell>
        <mxCell id="p6ASIf7CxFFDQzg2Je8K-62" style="edgeStyle=orthogonalEdgeStyle;rounded=0;orthogonalLoop=1;jettySize=auto;html=1;exitX=1;exitY=0.5;exitDx=0;exitDy=0;entryX=0;entryY=0.5;entryDx=0;entryDy=0;" edge="1" parent="1" source="p6ASIf7CxFFDQzg2Je8K-20" target="p6ASIf7CxFFDQzg2Je8K-37">
          <mxGeometry relative="1" as="geometry" />
        </mxCell>
        <mxCell id="p6ASIf7CxFFDQzg2Je8K-20" value="Task Scheduler (ex.Hangfire)" style="rounded=1;whiteSpace=wrap;html=1;" vertex="1" parent="1">
          <mxGeometry x="400" y="770" width="120" height="60" as="geometry" />
        </mxCell>
        <mxCell id="p6ASIf7CxFFDQzg2Je8K-61" style="edgeStyle=orthogonalEdgeStyle;rounded=0;orthogonalLoop=1;jettySize=auto;html=1;exitX=1;exitY=0.5;exitDx=0;exitDy=0;" edge="1" parent="1" source="p6ASIf7CxFFDQzg2Je8K-28" target="p6ASIf7CxFFDQzg2Je8K-29">
          <mxGeometry relative="1" as="geometry" />
        </mxCell>
        <mxCell id="p6ASIf7CxFFDQzg2Je8K-28" value="Testing Endpoints&lt;br&gt;&lt;font style=&quot;font-size: 9px;&quot;&gt;выбрать тесты для кандидата, вакансии&lt;/font&gt;" style="rounded=1;whiteSpace=wrap;html=1;" vertex="1" parent="1">
          <mxGeometry x="210" y="960" width="120" height="60" as="geometry" />
        </mxCell>
        <mxCell id="p6ASIf7CxFFDQzg2Je8K-64" style="edgeStyle=orthogonalEdgeStyle;rounded=0;orthogonalLoop=1;jettySize=auto;html=1;entryX=0;entryY=0.5;entryDx=0;entryDy=0;" edge="1" parent="1" source="p6ASIf7CxFFDQzg2Je8K-29" target="p6ASIf7CxFFDQzg2Je8K-63">
          <mxGeometry relative="1" as="geometry">
            <Array as="points">
              <mxPoint x="460" y="860" />
              <mxPoint x="190" y="860" />
              <mxPoint x="190" y="400" />
            </Array>
          </mxGeometry>
        </mxCell>
        <mxCell id="p6ASIf7CxFFDQzg2Je8K-77" style="edgeStyle=orthogonalEdgeStyle;rounded=0;orthogonalLoop=1;jettySize=auto;html=1;exitX=1;exitY=0.5;exitDx=0;exitDy=0;entryX=0;entryY=0.5;entryDx=0;entryDy=0;" edge="1" parent="1" source="p6ASIf7CxFFDQzg2Je8K-29" target="p6ASIf7CxFFDQzg2Je8K-32">
          <mxGeometry relative="1" as="geometry" />
        </mxCell>
        <mxCell id="p6ASIf7CxFFDQzg2Je8K-78" style="edgeStyle=orthogonalEdgeStyle;rounded=0;orthogonalLoop=1;jettySize=auto;html=1;exitX=1;exitY=0.5;exitDx=0;exitDy=0;entryX=0;entryY=0.5;entryDx=0;entryDy=0;" edge="1" parent="1" source="p6ASIf7CxFFDQzg2Je8K-29" target="p6ASIf7CxFFDQzg2Je8K-35">
          <mxGeometry relative="1" as="geometry" />
        </mxCell>
        <mxCell id="p6ASIf7CxFFDQzg2Je8K-79" style="edgeStyle=orthogonalEdgeStyle;rounded=0;orthogonalLoop=1;jettySize=auto;html=1;exitX=1;exitY=0.5;exitDx=0;exitDy=0;entryX=0;entryY=0.5;entryDx=0;entryDy=0;" edge="1" parent="1" source="p6ASIf7CxFFDQzg2Je8K-29" target="p6ASIf7CxFFDQzg2Je8K-36">
          <mxGeometry relative="1" as="geometry" />
        </mxCell>
        <mxCell id="p6ASIf7CxFFDQzg2Je8K-29" value="Testing Service" style="rounded=1;whiteSpace=wrap;html=1;" vertex="1" parent="1">
          <mxGeometry x="400" y="960" width="120" height="60" as="geometry" />
        </mxCell>
        <mxCell id="p6ASIf7CxFFDQzg2Je8K-30" value="RDBMS" style="shape=datastore;whiteSpace=wrap;html=1;" vertex="1" parent="1">
          <mxGeometry x="650" y="880" width="60" height="60" as="geometry" />
        </mxCell>
        <mxCell id="p6ASIf7CxFFDQzg2Je8K-32" value="Candidates" style="rounded=0;whiteSpace=wrap;html=1;" vertex="1" parent="1">
          <mxGeometry x="620" y="960" width="120" height="60" as="geometry" />
        </mxCell>
        <mxCell id="p6ASIf7CxFFDQzg2Je8K-35" value="Tests" style="rounded=0;whiteSpace=wrap;html=1;" vertex="1" parent="1">
          <mxGeometry x="620" y="1030" width="120" height="60" as="geometry" />
        </mxCell>
        <mxCell id="p6ASIf7CxFFDQzg2Je8K-36" value="Vacancies" style="rounded=0;whiteSpace=wrap;html=1;" vertex="1" parent="1">
          <mxGeometry x="620" y="1100" width="120" height="60" as="geometry" />
        </mxCell>
        <mxCell id="p6ASIf7CxFFDQzg2Je8K-37" value="RDBMS" style="shape=datastore;whiteSpace=wrap;html=1;" vertex="1" parent="1">
          <mxGeometry x="650" y="770" width="60" height="60" as="geometry" />
        </mxCell>
        <mxCell id="p6ASIf7CxFFDQzg2Je8K-38" value="Notification Service" style="rounded=1;whiteSpace=wrap;html=1;" vertex="1" parent="1">
          <mxGeometry x="400" y="1220" width="120" height="60" as="geometry" />
        </mxCell>
        <mxCell id="p6ASIf7CxFFDQzg2Je8K-40" value="Main Service Backend" style="text;strokeColor=none;fillColor=none;align=left;verticalAlign=middle;spacingLeft=4;spacingRight=4;overflow=hidden;points=[[0,0.5],[1,0.5]];portConstraint=eastwest;rotatable=0;whiteSpace=wrap;html=1;" vertex="1" parent="1">
          <mxGeometry x="335" y="60" width="80" height="30" as="geometry" />
        </mxCell>
        <mxCell id="p6ASIf7CxFFDQzg2Je8K-41" value="Testing Backend" style="text;strokeColor=none;fillColor=none;align=left;verticalAlign=middle;spacingLeft=4;spacingRight=4;overflow=hidden;points=[[0,0.5],[1,0.5]];portConstraint=eastwest;rotatable=0;whiteSpace=wrap;html=1;" vertex="1" parent="1">
          <mxGeometry x="335" y="910" width="80" height="30" as="geometry" />
        </mxCell>
        <mxCell id="p6ASIf7CxFFDQzg2Je8K-44" value="Notification Service" style="text;strokeColor=none;fillColor=none;align=left;verticalAlign=middle;spacingLeft=4;spacingRight=4;overflow=hidden;points=[[0,0.5],[1,0.5]];portConstraint=eastwest;rotatable=0;whiteSpace=wrap;html=1;" vertex="1" parent="1">
          <mxGeometry x="330" y="1170" width="80" height="30" as="geometry" />
        </mxCell>
        <mxCell id="p6ASIf7CxFFDQzg2Je8K-56" value="Outcoming invoices" style="rounded=0;whiteSpace=wrap;html=1;" vertex="1" parent="1">
          <mxGeometry x="630" y="540" width="120" height="60" as="geometry" />
        </mxCell>
        <mxCell id="p6ASIf7CxFFDQzg2Je8K-85" style="edgeStyle=orthogonalEdgeStyle;rounded=0;orthogonalLoop=1;jettySize=auto;html=1;exitX=1;exitY=0.5;exitDx=0;exitDy=0;entryX=0;entryY=0.5;entryDx=0;entryDy=0;" edge="1" parent="1" source="p6ASIf7CxFFDQzg2Je8K-63" target="p6ASIf7CxFFDQzg2Je8K-66">
          <mxGeometry relative="1" as="geometry" />
        </mxCell>
        <mxCell id="p6ASIf7CxFFDQzg2Je8K-63" value="Worker Endpoints&lt;br&gt;&lt;font style=&quot;font-size: 9px;&quot;&gt;создать работника из кандидата&lt;/font&gt;" style="rounded=1;whiteSpace=wrap;html=1;" vertex="1" parent="1">
          <mxGeometry x="210" y="370" width="120" height="60" as="geometry" />
        </mxCell>
        <mxCell id="p6ASIf7CxFFDQzg2Je8K-86" style="edgeStyle=orthogonalEdgeStyle;rounded=0;orthogonalLoop=1;jettySize=auto;html=1;exitX=1;exitY=0.5;exitDx=0;exitDy=0;entryX=0;entryY=0.5;entryDx=0;entryDy=0;" edge="1" parent="1" source="p6ASIf7CxFFDQzg2Je8K-66" target="p6ASIf7CxFFDQzg2Je8K-11">
          <mxGeometry relative="1" as="geometry" />
        </mxCell>
        <mxCell id="p6ASIf7CxFFDQzg2Je8K-66" value="Worker Service" style="rounded=1;whiteSpace=wrap;html=1;" vertex="1" parent="1">
          <mxGeometry x="400" y="670" width="120" height="60" as="geometry" />
        </mxCell>
        <mxCell id="p6ASIf7CxFFDQzg2Je8K-71" style="edgeStyle=orthogonalEdgeStyle;rounded=0;orthogonalLoop=1;jettySize=auto;html=1;exitX=1;exitY=0.5;exitDx=0;exitDy=0;entryX=0;entryY=0.5;entryDx=0;entryDy=0;" edge="1" parent="1" source="p6ASIf7CxFFDQzg2Je8K-68" target="p6ASIf7CxFFDQzg2Je8K-1">
          <mxGeometry relative="1" as="geometry" />
        </mxCell>
        <mxCell id="p6ASIf7CxFFDQzg2Je8K-72" style="edgeStyle=orthogonalEdgeStyle;rounded=0;orthogonalLoop=1;jettySize=auto;html=1;exitX=1;exitY=0.5;exitDx=0;exitDy=0;entryX=0;entryY=0.5;entryDx=0;entryDy=0;" edge="1" parent="1" source="p6ASIf7CxFFDQzg2Je8K-68" target="p6ASIf7CxFFDQzg2Je8K-4">
          <mxGeometry relative="1" as="geometry" />
        </mxCell>
        <mxCell id="p6ASIf7CxFFDQzg2Je8K-73" style="edgeStyle=orthogonalEdgeStyle;rounded=0;orthogonalLoop=1;jettySize=auto;html=1;exitX=1;exitY=0.5;exitDx=0;exitDy=0;entryX=0;entryY=0.5;entryDx=0;entryDy=0;" edge="1" parent="1" source="p6ASIf7CxFFDQzg2Je8K-68" target="p6ASIf7CxFFDQzg2Je8K-14">
          <mxGeometry relative="1" as="geometry" />
        </mxCell>
        <mxCell id="p6ASIf7CxFFDQzg2Je8K-74" style="edgeStyle=orthogonalEdgeStyle;rounded=0;orthogonalLoop=1;jettySize=auto;html=1;exitX=1;exitY=0.5;exitDx=0;exitDy=0;entryX=0;entryY=0.5;entryDx=0;entryDy=0;" edge="1" parent="1" source="p6ASIf7CxFFDQzg2Je8K-68" target="p6ASIf7CxFFDQzg2Je8K-63">
          <mxGeometry relative="1" as="geometry" />
        </mxCell>
        <mxCell id="p6ASIf7CxFFDQzg2Je8K-75" style="edgeStyle=orthogonalEdgeStyle;rounded=0;orthogonalLoop=1;jettySize=auto;html=1;exitX=1;exitY=0.5;exitDx=0;exitDy=0;entryX=0;entryY=0.5;entryDx=0;entryDy=0;" edge="1" parent="1" source="p6ASIf7CxFFDQzg2Je8K-68" target="p6ASIf7CxFFDQzg2Je8K-28">
          <mxGeometry relative="1" as="geometry" />
        </mxCell>
        <mxCell id="p6ASIf7CxFFDQzg2Je8K-76" value="HTTP REST" style="edgeLabel;html=1;align=center;verticalAlign=middle;resizable=0;points=[];" vertex="1" connectable="0" parent="p6ASIf7CxFFDQzg2Je8K-75">
          <mxGeometry x="-0.7894" y="-2" relative="1" as="geometry">
            <mxPoint as="offset" />
          </mxGeometry>
        </mxCell>
        <mxCell id="p6ASIf7CxFFDQzg2Je8K-83" style="edgeStyle=orthogonalEdgeStyle;rounded=0;orthogonalLoop=1;jettySize=auto;html=1;exitX=1;exitY=0.5;exitDx=0;exitDy=0;entryX=0;entryY=0.5;entryDx=0;entryDy=0;" edge="1" parent="1" source="p6ASIf7CxFFDQzg2Je8K-68" target="p6ASIf7CxFFDQzg2Je8K-82">
          <mxGeometry relative="1" as="geometry" />
        </mxCell>
        <mxCell id="p6ASIf7CxFFDQzg2Je8K-68" value="API Gateway&lt;br&gt;" style="rounded=1;whiteSpace=wrap;html=1;" vertex="1" parent="1">
          <mxGeometry x="-170" y="300" width="120" height="60" as="geometry" />
        </mxCell>
        <mxCell id="p6ASIf7CxFFDQzg2Je8K-70" style="edgeStyle=orthogonalEdgeStyle;rounded=0;orthogonalLoop=1;jettySize=auto;html=1;exitX=1;exitY=0.5;exitDx=0;exitDy=0;entryX=0;entryY=0.5;entryDx=0;entryDy=0;" edge="1" parent="1" source="p6ASIf7CxFFDQzg2Je8K-69" target="p6ASIf7CxFFDQzg2Je8K-68">
          <mxGeometry relative="1" as="geometry" />
        </mxCell>
        <mxCell id="p6ASIf7CxFFDQzg2Je8K-69" value="frontend" style="rounded=1;whiteSpace=wrap;html=1;" vertex="1" parent="1">
          <mxGeometry x="-380" y="300" width="120" height="60" as="geometry" />
        </mxCell>
        <mxCell id="p6ASIf7CxFFDQzg2Je8K-84" style="edgeStyle=orthogonalEdgeStyle;rounded=0;orthogonalLoop=1;jettySize=auto;html=1;exitX=1;exitY=0.5;exitDx=0;exitDy=0;entryX=0;entryY=0.5;entryDx=0;entryDy=0;" edge="1" parent="1" source="p6ASIf7CxFFDQzg2Je8K-82" target="p6ASIf7CxFFDQzg2Je8K-18">
          <mxGeometry relative="1" as="geometry" />
        </mxCell>
        <mxCell id="p6ASIf7CxFFDQzg2Je8K-82" value="Depo Endpoint&lt;br style=&quot;font-size: 11px;&quot;&gt;&lt;font size=&quot;1&quot;&gt;&quot;выдано&quot; для склада&lt;/font&gt;" style="rounded=1;whiteSpace=wrap;html=1;" vertex="1" parent="1">
          <mxGeometry x="210" y="525" width="120" height="60" as="geometry" />
        </mxCell>
      </root>
    </mxGraphModel>
  </diagram>
</mxfile>
